<?xml version="1.0" encoding="utf-8"?>
<!-- Generator: Adobe Illustrator 24.1.2, SVG Export Plug-In . SVG Version: 6.00 Build 0)  -->
<svg version="1.1" id="Layer_1" xmlns="http://www.w3.org/2000/svg" xmlns:xlink="http://www.w3.org/1999/xlink" x="0px" y="0px"
	 viewBox="0 0 181 66" style="enable-background:new 0 0 181 66;" xml:space="preserve">
<style type="text/css">
	.st0{fill:#52B955;}
	.st1{fill:#9DCF81;}
	.st2{fill:#FFFFFF;}
	.st3{fill:#024D27;}
	.st4{font-family:'Tinos-Bold';}
	.st5{font-size:14.9397px;}
</style>
<g>
	<g>
		<path class="st0" d="M-227.95,48.61c-3.56,0-7.06-0.31-10.49-0.94c-6.89-1.26-13.51-3.77-19.67-7.47
			c-5.36-3.22-9.4-6.74-12.11-9.46c0.58,13.58,11.77,24.42,25.5,24.42c6.57,0,12.55-2.48,17.07-6.55
			C-227.75,48.61-227.85,48.61-227.95,48.61z"/>
	</g>
</g>
<g>
	<g>
		<path class="st0" d="M-250.6,25.71c1.11,0.08,4.8,0.23,9.64-1c3.38-0.86,7.72-2.52,12.35-5.73c-3.38-6.45-12.18-11.03-16.09-11.03
			c-3.66,0-11.45,4.01-15.22,9.8C-257.32,20.41-254.21,23.15-250.6,25.71z"/>
	</g>
</g>
<path class="st1" d="M-224.89,21.1c-0.09-0.14-0.18-0.27-0.26-0.39c-5.64,4.23-11.12,6.31-15.23,7.32
	c-1.96,0.48-3.73,0.77-5.27,0.93c3.75,2.15,7.94,4.04,12.6,5.47c3.95-1.15,7.72-2.77,11.31-4.85
	C-222.2,26.32-223.78,23.06-224.89,21.1z"/>
<path class="st0" d="M-253.96,27.6c-3.55-2.62-6.89-5.61-9.99-8.93c-2.54,2.99-4.06,7.07-4.61,8.77c2,2.09,5,4.89,8.94,7.62
	c1.38,0.39,8.8,2.29,18.57,1.03c0.61-0.08,1.21-0.17,1.81-0.27C-244.44,33.74-249.37,30.98-253.96,27.6z"/>
<path class="st1" d="M-225.26,45.02c2.84-3.52,4.74-7.84,5.31-12.56c-0.49,0.28-0.98,0.56-1.47,0.83c-6,3.23-12.46,5.29-19.2,6.14
	c-2.49,0.31-4.84,0.44-6.98,0.44c-1.34,0-2.6-0.05-3.77-0.13C-243.16,43.67-234.43,45.43-225.26,45.02z"/>
<text transform="matrix(1 0 0 1 -207.5676 29.2231)" class="st2 st4" style="font-size:23.2505px;">Agathis Dammara</text>
<g>
	<g>
		<g>
			<path class="st2" d="M-196.28,51.67h-1.81l-4.74-6.4l-1.4,1.26v5.14h-1.53V38.51h1.53v6.56c0.34-0.39,0.69-0.78,1.05-1.17
				c0.36-0.39,0.72-0.78,1.07-1.17l3.84-4.22h1.79l-5.24,5.71L-196.28,51.67z"/>
			<path class="st2" d="M-189.17,41.64c1.18,0,2.05,0.26,2.62,0.79c0.57,0.53,0.86,1.37,0.86,2.53v6.71h-1.09l-0.29-1.46h-0.07
				c-0.28,0.36-0.56,0.66-0.86,0.9c-0.3,0.24-0.65,0.43-1.04,0.55c-0.39,0.12-0.87,0.18-1.44,0.18c-0.6,0-1.13-0.1-1.6-0.31
				c-0.47-0.21-0.83-0.53-1.1-0.95c-0.27-0.43-0.4-0.97-0.4-1.62c0-0.98,0.39-1.74,1.17-2.27c0.78-0.53,1.97-0.82,3.56-0.86
				l1.7-0.07v-0.6c0-0.85-0.18-1.45-0.55-1.79c-0.37-0.34-0.88-0.51-1.55-0.51c-0.52,0-1.01,0.08-1.48,0.23
				c-0.47,0.15-0.91,0.33-1.33,0.53l-0.46-1.13c0.44-0.23,0.95-0.42,1.53-0.58C-190.42,41.72-189.81,41.64-189.17,41.64z
				 M-187.18,46.81l-1.5,0.06c-1.23,0.05-2.1,0.25-2.6,0.6c-0.5,0.35-0.76,0.86-0.76,1.5c0,0.56,0.17,0.98,0.51,1.25
				c0.34,0.27,0.79,0.41,1.36,0.41c0.88,0,1.59-0.24,2.15-0.73c0.56-0.49,0.84-1.22,0.84-2.19V46.81z"/>
			<path class="st2" d="M-176.3,41.63c0.2,0,0.41,0.01,0.62,0.03c0.22,0.02,0.41,0.05,0.58,0.09l-0.19,1.39
				c-0.16-0.04-0.34-0.08-0.54-0.1c-0.2-0.02-0.38-0.04-0.56-0.04c-0.4,0-0.77,0.08-1.12,0.24c-0.35,0.16-0.66,0.39-0.92,0.68
				c-0.26,0.3-0.47,0.65-0.62,1.07s-0.22,0.88-0.22,1.39v5.29h-1.5V41.8h1.24l0.16,1.82h0.06c0.2-0.37,0.45-0.7,0.74-1
				c0.29-0.3,0.62-0.54,1-0.72C-177.19,41.71-176.76,41.63-176.3,41.63z"/>
			<path class="st2" d="M-169.91,37.67v3.5c0,0.4-0.01,0.79-0.03,1.17c-0.02,0.38-0.04,0.67-0.05,0.88h0.08
				c0.27-0.44,0.66-0.82,1.17-1.13s1.16-0.46,1.95-0.46c1.24,0,2.22,0.43,2.96,1.28c0.74,0.86,1.1,2.13,1.1,3.81
				c0,1.11-0.17,2.05-0.5,2.81s-0.81,1.34-1.42,1.73c-0.61,0.39-1.33,0.58-2.17,0.58c-0.78,0-1.42-0.15-1.92-0.44
				s-0.89-0.65-1.16-1.07h-0.12l-0.31,1.32h-1.08v-14H-169.91z M-167.03,42.88c-0.71,0-1.28,0.14-1.7,0.42
				c-0.42,0.28-0.72,0.7-0.9,1.26c-0.18,0.56-0.27,1.27-0.27,2.13v0.08c0,1.24,0.21,2.19,0.62,2.85c0.41,0.66,1.17,0.99,2.26,0.99
				c0.92,0,1.61-0.34,2.07-1.01s0.69-1.63,0.69-2.88c0-1.27-0.23-2.23-0.68-2.87C-165.41,43.21-166.1,42.88-167.03,42.88z"/>
			<path class="st2" d="M-149.78,46.72c0,0.81-0.1,1.53-0.31,2.17c-0.21,0.64-0.51,1.17-0.91,1.61c-0.4,0.44-0.88,0.77-1.44,1
				c-0.56,0.23-1.2,0.35-1.9,0.35c-0.66,0-1.26-0.12-1.81-0.35c-0.55-0.23-1.02-0.57-1.42-1c-0.4-0.44-0.71-0.97-0.93-1.61
				c-0.22-0.64-0.33-1.36-0.33-2.17c0-1.08,0.18-2,0.55-2.76c0.37-0.76,0.89-1.34,1.57-1.74c0.68-0.4,1.49-0.6,2.43-0.6
				c0.9,0,1.69,0.2,2.36,0.6c0.68,0.4,1.2,0.98,1.58,1.74S-149.78,45.64-149.78,46.72z M-157.28,46.72c0,0.79,0.1,1.48,0.32,2.06
				c0.21,0.58,0.53,1.03,0.97,1.35c0.44,0.32,1,0.48,1.69,0.48c0.68,0,1.25-0.16,1.69-0.48c0.44-0.32,0.77-0.77,0.98-1.35
				s0.32-1.27,0.32-2.06c0-0.79-0.11-1.46-0.32-2.04s-0.53-1.02-0.97-1.33c-0.44-0.31-1-0.47-1.7-0.47c-1.03,0-1.78,0.34-2.25,1.02
				C-157.04,44.58-157.28,45.52-157.28,46.72z"/>
			<path class="st2" d="M-140.68,41.63c1.17,0,2.05,0.29,2.66,0.86c0.6,0.57,0.9,1.49,0.9,2.76v6.43h-1.48v-6.33
				c0-0.82-0.19-1.44-0.56-1.84s-0.95-0.61-1.72-0.61c-1.09,0-1.86,0.31-2.3,0.93c-0.44,0.62-0.67,1.52-0.67,2.69v5.17h-1.49V41.8
				h1.21l0.22,1.42h0.08c0.21-0.35,0.48-0.64,0.8-0.88s0.69-0.42,1.09-0.54C-141.55,41.69-141.12,41.63-140.68,41.63z"/>
		</g>
	</g>
</g>
<g>
	<g>
		<path class="st3" d="M-356.83,285.77c-21.03,0-41.74-1.84-62.04-5.54c-40.78-7.42-79.94-22.28-116.38-44.16
			c-31.68-19.02-55.63-39.87-71.66-55.98c3.42,80.34,69.63,144.43,150.81,144.43c38.84,0,74.24-14.67,100.99-38.76
			C-355.68,285.76-356.25,285.77-356.83,285.77z"/>
	</g>
</g>
<g>
	<g>
		<path class="st3" d="M-490.83,150.33c6.54,0.5,28.37,1.35,57.05-5.91c20.02-5.07,45.69-14.91,73.04-33.91
			c-20.02-38.16-72.05-65.23-95.2-65.23c-21.65,0-67.7,23.69-90.03,57.98C-530.58,118.97-512.18,135.19-490.83,150.33z"/>
	</g>
</g>
<path class="st0" d="M-245.83,123.07c-0.54-0.81-1.07-1.59-1.57-2.32c-33.35,25.01-65.78,37.3-90.12,43.31
	c-11.57,2.86-22.09,4.53-31.18,5.48c22.19,12.7,47,23.9,74.53,32.35c23.34-6.81,45.65-16.4,66.9-28.7
	C-229.95,153.92-239.29,134.66-245.83,123.07z"/>
<path class="st3" d="M-510.71,161.5c-20.98-15.47-40.76-33.19-59.08-52.85c-15.02,17.71-23.99,41.85-27.29,51.87
	c11.85,12.39,29.57,28.9,52.86,45.1c8.15,2.3,52.08,13.53,109.84,6.11c3.59-0.46,7.16-1,10.71-1.58
	C-454.41,197.8-483.58,181.51-510.71,161.5z"/>
<path class="st0" d="M-248.04,264.57c16.83-20.83,28.06-46.36,31.43-74.32c-2.89,1.67-5.79,3.31-8.71,4.89
	c-35.48,19.09-73.69,31.31-113.56,36.31c-14.76,1.85-28.61,2.58-41.28,2.58c-7.91,0-15.35-0.29-22.27-0.76
	C-353.94,256.55-302.29,267-248.04,264.57z"/>
<path class="st1" d="M-262.83-84.28c-0.54-0.81-1.07-1.59-1.57-2.32c-33.35,25.01-65.78,37.3-90.12,43.31
	c-11.57,2.86-22.09,4.53-31.18,5.48c22.19,12.7,47,23.9,74.53,32.35c23.34-6.81,45.65-16.4,66.9-28.7
	C-246.95-53.43-256.3-72.69-262.83-84.28z"/>
<g>
	<g>
		<path class="st0" d="M41.71,47.06c-3.23,0-6.42-0.28-9.54-0.85c-6.27-1.14-12.29-3.43-17.89-6.79c-4.87-2.92-8.55-6.13-11.02-8.61
			c0.53,12.35,10.7,22.2,23.19,22.2c5.97,0,11.41-2.26,15.53-5.96C41.89,47.06,41.8,47.06,41.71,47.06z"/>
	</g>
</g>
<g>
	<g>
		<path class="st0" d="M21.11,26.24c1.01,0.08,4.36,0.21,8.77-0.91c3.08-0.78,7.02-2.29,11.23-5.21
			c-3.08-5.87-11.08-10.03-14.63-10.03c-3.33,0-10.41,3.64-13.84,8.91C15,21.42,17.83,23.91,21.11,26.24z"/>
	</g>
</g>
<path class="st1" d="M44.49,22.05c-0.08-0.12-0.16-0.24-0.24-0.36c-5.13,3.84-10.11,5.73-13.85,6.66c-1.78,0.44-3.4,0.7-4.79,0.84
	c3.41,1.95,7.22,3.67,11.46,4.97c3.59-1.05,7.02-2.52,10.28-4.41C46.93,26.79,45.49,23.83,44.49,22.05z"/>
<path class="st0" d="M18.05,27.96c-3.23-2.38-6.27-5.1-9.08-8.12c-2.31,2.72-3.69,6.43-4.2,7.97c1.82,1.9,4.55,4.44,8.13,6.93
	c1.25,0.35,8.01,2.08,16.89,0.94c0.55-0.07,1.1-0.15,1.65-0.24C26.71,33.54,22.22,31.03,18.05,27.96z"/>
<path class="st1" d="M44.15,43.8c2.59-3.2,4.31-7.13,4.83-11.43c-0.44,0.26-0.89,0.51-1.34,0.75c-5.45,2.94-11.33,4.81-17.46,5.58
	c-2.27,0.28-4.4,0.4-6.35,0.4c-1.22,0-2.36-0.04-3.42-0.12C27.87,42.57,35.81,44.18,44.15,43.8z"/>
<text transform="matrix(1 0 0 1 57.363 28.997)" class="st2 st4 st5">Agathis Dammara</text>
<g>
	<g>
		<g>
			<path class="st2" d="M64.61,45.34h-1.16l-3.05-4.11l-0.9,0.81v3.3h-0.98v-8.46h0.98v4.22c0.22-0.25,0.45-0.5,0.68-0.75
				c0.23-0.25,0.46-0.5,0.69-0.75l2.47-2.71h1.15l-3.37,3.67L64.61,45.34z"/>
			<path class="st2" d="M69.18,38.9c0.76,0,1.32,0.17,1.68,0.51c0.37,0.34,0.55,0.88,0.55,1.63v4.31h-0.7l-0.19-0.94h-0.05
				c-0.18,0.23-0.36,0.42-0.56,0.58c-0.19,0.16-0.42,0.27-0.67,0.35c-0.25,0.08-0.56,0.12-0.93,0.12c-0.39,0-0.73-0.07-1.03-0.2
				s-0.53-0.34-0.71-0.61c-0.17-0.27-0.26-0.62-0.26-1.04c0-0.63,0.25-1.12,0.75-1.46c0.5-0.34,1.26-0.52,2.29-0.55l1.09-0.05v-0.39
				c0-0.55-0.12-0.93-0.35-1.15c-0.23-0.22-0.57-0.33-0.99-0.33c-0.33,0-0.65,0.05-0.95,0.14c-0.3,0.1-0.59,0.21-0.86,0.34
				l-0.29-0.73c0.29-0.15,0.61-0.27,0.98-0.38S68.77,38.9,69.18,38.9z M70.47,42.22l-0.97,0.04c-0.79,0.03-1.35,0.16-1.67,0.39
				c-0.32,0.23-0.49,0.55-0.49,0.97c0,0.36,0.11,0.63,0.33,0.8c0.22,0.17,0.51,0.26,0.87,0.26c0.56,0,1.02-0.16,1.38-0.47
				c0.36-0.31,0.54-0.78,0.54-1.41V42.22z"/>
			<path class="st2" d="M77.46,38.89c0.13,0,0.26,0.01,0.4,0.02s0.26,0.03,0.37,0.05l-0.12,0.89c-0.1-0.03-0.22-0.05-0.35-0.06
				c-0.13-0.02-0.25-0.02-0.36-0.02c-0.25,0-0.49,0.05-0.72,0.15c-0.23,0.1-0.42,0.25-0.59,0.44c-0.17,0.19-0.3,0.42-0.4,0.69
				c-0.1,0.27-0.14,0.57-0.14,0.89v3.4h-0.97V39h0.8l0.1,1.17h0.04c0.13-0.24,0.29-0.45,0.47-0.64c0.19-0.2,0.4-0.35,0.64-0.47
				C76.88,38.94,77.15,38.89,77.46,38.89z"/>
			<path class="st2" d="M81.56,36.34v2.25c0,0.26-0.01,0.51-0.02,0.75c-0.01,0.24-0.02,0.43-0.03,0.57h0.05
				c0.17-0.29,0.42-0.53,0.75-0.72c0.33-0.2,0.75-0.29,1.25-0.29c0.79,0,1.43,0.27,1.9,0.82c0.47,0.55,0.71,1.37,0.71,2.45
				c0,0.71-0.11,1.31-0.32,1.8c-0.22,0.49-0.52,0.86-0.91,1.11c-0.39,0.25-0.86,0.38-1.39,0.38c-0.5,0-0.91-0.09-1.23-0.28
				c-0.32-0.19-0.57-0.42-0.74-0.69h-0.08l-0.2,0.85H80.6v-9H81.56z M83.41,39.7c-0.46,0-0.82,0.09-1.09,0.27
				c-0.27,0.18-0.46,0.45-0.58,0.81c-0.12,0.36-0.18,0.82-0.18,1.37v0.05c0,0.8,0.13,1.41,0.4,1.83s0.75,0.63,1.45,0.63
				c0.59,0,1.03-0.22,1.33-0.65s0.44-1.05,0.44-1.85c0-0.82-0.15-1.43-0.44-1.84S84.01,39.7,83.41,39.7z"/>
			<path class="st2" d="M94.5,42.16c0,0.52-0.07,0.99-0.2,1.39c-0.13,0.41-0.33,0.75-0.58,1.04s-0.56,0.5-0.92,0.64
				c-0.36,0.15-0.77,0.22-1.22,0.22c-0.42,0-0.81-0.07-1.17-0.22c-0.35-0.15-0.66-0.36-0.91-0.64c-0.26-0.28-0.46-0.63-0.6-1.04
				c-0.14-0.41-0.21-0.87-0.21-1.39c0-0.69,0.12-1.29,0.35-1.77s0.57-0.86,1.01-1.12c0.44-0.26,0.96-0.38,1.56-0.38
				c0.58,0,1.08,0.13,1.52,0.39c0.43,0.26,0.77,0.63,1.01,1.12C94.38,40.88,94.5,41.47,94.5,42.16z M89.67,42.16
				c0,0.51,0.07,0.95,0.2,1.32s0.34,0.66,0.62,0.87c0.28,0.21,0.64,0.31,1.09,0.31c0.44,0,0.8-0.1,1.08-0.31
				c0.28-0.2,0.49-0.49,0.63-0.87c0.13-0.37,0.2-0.82,0.2-1.32c0-0.5-0.07-0.94-0.2-1.31c-0.14-0.37-0.34-0.65-0.63-0.85
				c-0.28-0.2-0.65-0.3-1.09-0.3c-0.66,0-1.14,0.22-1.45,0.65C89.83,40.79,89.67,41.39,89.67,42.16z"/>
			<path class="st2" d="M100.34,38.89c0.75,0,1.32,0.18,1.71,0.55c0.38,0.37,0.58,0.96,0.58,1.77v4.13h-0.95v-4.07
				c0-0.53-0.12-0.92-0.36-1.19c-0.24-0.26-0.61-0.39-1.11-0.39c-0.7,0-1.2,0.2-1.48,0.6c-0.29,0.4-0.43,0.97-0.43,1.73v3.32h-0.96
				V39h0.78l0.14,0.91h0.05c0.13-0.22,0.31-0.41,0.51-0.56s0.44-0.27,0.7-0.35C99.78,38.93,100.06,38.89,100.34,38.89z"/>
		</g>
	</g>
</g>
</svg>
